<svg xmlns="http://www.w3.org/2000/svg" viewBox="0 0 30 20" role="img" aria-label="China flag">
  <rect width="30" height="20" fill="#de2910"/>
  <path fill="#ffde00" d="m5 3.2.7 2.2H8L6.1 6.8l.7 2.2L5 7.6 3.2 9l.7-2.2L2 5.4h2.3L5 3.2Z"/>
  <path fill="#ffde00" d="m10.7 2.2.32.75.82.06-.62.54.2.8-.7-.42-.7.43.18-.8-.62-.53.82-.07.31-.76Zm2.55 2.35.06.82.74.35-.78.25-.1.81-.48-.66-.8.15.48-.66-.4-.72.78.26.55-.6Zm-.05 3.6-.34.75.6.56-.82-.08-.35.74-.17-.8-.82-.1.72-.41-.16-.8.61.55.72-.4Zm-2.5 2.28-.7.42.2-.8-.62-.54.82-.06.32-.75.31.76.82.07-.62.53.18.8-.7-.43Z"/>
</svg>
